<svg width="34" height="30" viewBox="0 0 34 30" fill="none" xmlns="http://www.w3.org/2000/svg">
<g clip-path="url(#clip0_0_687)">
<path d="M30 4.6875C30.5156 4.6875 30.9375 5.10938 30.9375 5.625V7.5H2.8125V5.625C2.8125 5.10938 3.23438 4.6875 3.75 4.6875H30ZM30.9375 13.125V24.375C30.9375 24.8906 30.5156 25.3125 30 25.3125H3.75C3.23438 25.3125 2.8125 24.8906 2.8125 24.375V13.125H30.9375ZM3.75 1.875C1.68164 1.875 0 3.55664 0 5.625V24.375C0 26.4434 1.68164 28.125 3.75 28.125H30C32.0684 28.125 33.75 26.4434 33.75 24.375V5.625C33.75 3.55664 32.0684 1.875 30 1.875H3.75ZM7.03125 19.6875C6.25195 19.6875 5.625 20.3145 5.625 21.0938C5.625 21.873 6.25195 22.5 7.03125 22.5H9.84375C10.623 22.5 11.25 21.873 11.25 21.0938C11.25 20.3145 10.623 19.6875 9.84375 19.6875H7.03125ZM14.5312 19.6875C13.752 19.6875 13.125 20.3145 13.125 21.0938C13.125 21.873 13.752 22.5 14.5312 22.5H21.0938C21.873 22.5 22.5 21.873 22.5 21.0938C22.5 20.3145 21.873 19.6875 21.0938 19.6875H14.5312Z" fill="#2563EB"/>
</g>
<defs>
<clipPath id="clip0_0_687">
<path d="M0 0H33.75V30H0V0Z" fill="white"/>
</clipPath>
</defs>
</svg>
